<svg version="1.2" xmlns="http://www.w3.org/2000/svg" viewBox="0 0 1552 1551" width="1552" height="1551">
	<title>OCBC_Bank_Logo-svg</title>
	<style>
		.s0 { fill: #ee2722 } 
	</style>
	<g id="layer1">
		<g id="g21693">
			<g id="g114">
				<path id="path116" fill-rule="evenodd" class="s0" d="m953.6 1120.7c26.1-14.9 52-33.4 74.3-52 14.8-11.1 29.6-26 40.9-40.8 59.3-70.5 96.4-155.8 96.4-252.3 0-215.1-174.5-389.4-389.7-389.4-44.4 0-89 7.4-126.1 22.2l-270.9-300.4c115.1-66.8 252.4-107.6 397-107.6 430.5 0 775.6 345 775.6 775.2 0 426.7-345.1 775.4-775.6 775.4-211.4 0-404.5-85.4-545.5-226.3h950.1l7.3-7.4-1001.9-40.8-7.4-7.5h1061.3l3.7-7.4-1109.5-52-3.8-3.6h430.5c0 0 219 7.3 393.3-85.3zm-883.1-18.6c-3.8-14.8-11.2-29.6-18.6-44.5h233.8l40.9 44.5h345.1l-74.3 77.9h-426.7c-11.1-40.8-52-74.2-100.2-77.9zm-26-70.5c-29.7-81.5-44.5-166.9-44.5-256 0-51.8 3.8-100 14.8-148.3l374.9 133.6v14.7c0 89.1 29.6 174.5 85.3 241.2h3.7c-33.4-59.4-51.9-126.1-51.9-196.6 0-14.8 0-29.7 3.7-44.6l400.8 141v115zm786.7-263.3l-308.1-204.1c37.2-44.5 85.4-77.8 141.2-100.1l166.9 166.9zm0 133.5l-397-152c11-59.5 37.1-118.8 74.1-167l322.9 204zm-441.6-166.9l-367.3-141c22.2-89 55.6-170.5 103.8-244.8l330.3 204c-37.1 52-59.4 115-66.8 181.8zm85.4-204l-322.9-215.1c51.9-70.6 115-133.6 189.2-181.8l278.4 285.6c-55.7 25.9-107.7 63.1-144.7 111.3z"/>
			</g>
		</g>
	</g>
</svg>