<svg width="1024" height="300" viewBox="0 0 1024 300" fill="none" xmlns="http://www.w3.org/2000/svg">
<rect width="1024" height="300" fill="white"/>
<path d="M33.4091 47.4545H42.9318L54.3182 68.0455H54.7727L66.1591 47.4545H75.6818L58.75 76.6364V94H50.3409V76.6364L33.4091 47.4545ZM90.017 94.6818C86.608 94.6818 83.6534 93.9318 81.1534 92.4318C78.6534 90.9318 76.714 88.8333 75.3352 86.1364C73.9716 83.4394 73.2898 80.2879 73.2898 76.6818C73.2898 73.0758 73.9716 69.9167 75.3352 67.2045C76.714 64.4924 78.6534 62.3864 81.1534 60.8864C83.6534 59.3864 86.608 58.6364 90.017 58.6364C93.4261 58.6364 96.3807 59.3864 98.8807 60.8864C101.381 62.3864 103.313 64.4924 104.676 67.2045C106.055 69.9167 106.744 73.0758 106.744 76.6818C106.744 80.2879 106.055 83.4394 104.676 86.1364C103.313 88.8333 101.381 90.9318 98.8807 92.4318C96.3807 93.9318 93.4261 94.6818 90.017 94.6818ZM90.0625 88.0909C91.911 88.0909 93.4564 87.5833 94.6989 86.5682C95.9413 85.5379 96.8655 84.1591 97.4716 82.4318C98.0928 80.7045 98.4034 78.7803 98.4034 76.6591C98.4034 74.5227 98.0928 72.5909 97.4716 70.8636C96.8655 69.1212 95.9413 67.7348 94.6989 66.7045C93.4564 65.6742 91.911 65.1591 90.0625 65.1591C88.1686 65.1591 86.5928 65.6742 85.3352 66.7045C84.0928 67.7348 83.161 69.1212 82.5398 70.8636C81.9337 72.5909 81.6307 74.5227 81.6307 76.6591C81.6307 78.7803 81.9337 80.7045 82.5398 82.4318C83.161 84.1591 84.0928 85.5379 85.3352 86.5682C86.5928 87.5833 88.1686 88.0909 90.0625 88.0909ZM135.977 79.3182V59.0909H144.205V94H136.227V87.7955H135.864C135.076 89.75 133.78 91.3485 131.977 92.5909C130.189 93.8333 127.985 94.4545 125.364 94.4545C123.076 94.4545 121.053 93.947 119.295 92.9318C117.553 91.9015 116.189 90.4091 115.205 88.4545C114.22 86.4848 113.727 84.1061 113.727 81.3182V59.0909H121.955V80.0455C121.955 82.2576 122.561 84.0152 123.773 85.3182C124.985 86.6212 126.576 87.2727 128.545 87.2727C129.758 87.2727 130.932 86.9773 132.068 86.3864C133.205 85.7955 134.136 84.9167 134.864 83.75C135.606 82.5682 135.977 81.0909 135.977 79.3182ZM168.54 59.0909H176.767V96C176.767 98.5152 176.29 100.591 175.335 102.227C174.381 103.864 173.002 105.083 171.199 105.886C169.396 106.689 167.206 107.091 164.631 107.091C164.328 107.091 164.047 107.083 163.79 107.068C163.532 107.068 163.252 107.061 162.949 107.045V100.341C163.176 100.356 163.381 100.364 163.562 100.364C163.744 100.379 163.934 100.386 164.131 100.386C165.706 100.386 166.835 100 167.517 99.2273C168.199 98.4697 168.54 97.3561 168.54 95.8864V59.0909ZM172.631 54.1364C171.313 54.1364 170.184 53.7045 169.244 52.8409C168.32 51.9621 167.858 50.9091 167.858 49.6818C167.858 48.4394 168.32 47.3864 169.244 46.5227C170.184 45.6439 171.313 45.2045 172.631 45.2045C173.934 45.2045 175.047 45.6439 175.972 46.5227C176.911 47.3864 177.381 48.4394 177.381 49.6818C177.381 50.9091 176.911 51.9621 175.972 52.8409C175.047 53.7045 173.934 54.1364 172.631 54.1364ZM207.477 79.3182V59.0909H215.705V94H207.727V87.7955H207.364C206.576 89.75 205.28 91.3485 203.477 92.5909C201.689 93.8333 199.485 94.4545 196.864 94.4545C194.576 94.4545 192.553 93.947 190.795 92.9318C189.053 91.9015 187.689 90.4091 186.705 88.4545C185.72 86.4848 185.227 84.1061 185.227 81.3182V59.0909H193.455V80.0455C193.455 82.2576 194.061 84.0152 195.273 85.3182C196.485 86.6212 198.076 87.2727 200.045 87.2727C201.258 87.2727 202.432 86.9773 203.568 86.3864C204.705 85.7955 205.636 84.9167 206.364 83.75C207.106 82.5682 207.477 81.0909 207.477 79.3182ZM251.756 68.3182L244.256 69.1364C244.044 68.3788 243.672 67.6667 243.142 67C242.627 66.3333 241.93 65.7955 241.051 65.3864C240.172 64.9773 239.097 64.7727 237.824 64.7727C236.112 64.7727 234.672 65.1439 233.506 65.8864C232.354 66.6288 231.786 67.5909 231.801 68.7727C231.786 69.7879 232.157 70.6136 232.915 71.25C233.688 71.8864 234.96 72.4091 236.733 72.8182L242.688 74.0909C245.991 74.803 248.445 75.9318 250.051 77.4773C251.672 79.0227 252.491 81.0455 252.506 83.5455C252.491 85.7424 251.847 87.6818 250.574 89.3636C249.316 91.0303 247.566 92.3333 245.324 93.2727C243.081 94.2121 240.506 94.6818 237.597 94.6818C233.324 94.6818 229.884 93.7879 227.278 92C224.672 90.197 223.119 87.6894 222.619 84.4773L230.642 83.7045C231.006 85.2803 231.778 86.4697 232.96 87.2727C234.142 88.0758 235.68 88.4773 237.574 88.4773C239.528 88.4773 241.097 88.0758 242.278 87.2727C243.475 86.4697 244.074 85.4773 244.074 84.2955C244.074 83.2955 243.688 82.4697 242.915 81.8182C242.157 81.1667 240.975 80.6667 239.369 80.3182L233.415 79.0682C230.066 78.3712 227.589 77.197 225.983 75.5455C224.377 73.8788 223.581 71.7727 223.597 69.2273C223.581 67.0758 224.165 65.2121 225.347 63.6364C226.544 62.0455 228.203 60.8182 230.324 59.9545C232.46 59.0758 234.922 58.6364 237.71 58.6364C241.801 58.6364 245.021 59.5076 247.369 61.25C249.733 62.9924 251.195 65.3485 251.756 68.3182ZM276.722 59.0909V65.4545H256.653V59.0909H276.722ZM261.608 50.7273H269.835V83.5C269.835 84.6061 270.002 85.4545 270.335 86.0455C270.684 86.6212 271.138 87.0152 271.699 87.2273C272.259 87.4394 272.881 87.5455 273.562 87.5455C274.078 87.5455 274.547 87.5076 274.972 87.4318C275.411 87.3561 275.744 87.2879 275.972 87.2273L277.358 93.6591C276.919 93.8106 276.29 93.9773 275.472 94.1591C274.669 94.3409 273.684 94.447 272.517 94.4773C270.456 94.5379 268.6 94.2273 266.949 93.5455C265.297 92.8485 263.987 91.7727 263.017 90.3182C262.063 88.8636 261.593 87.0455 261.608 84.8636V50.7273ZM306.682 94L296.818 59.0909H305.205L311.341 83.6364H311.659L317.932 59.0909H326.227L332.5 83.5H332.841L338.886 59.0909H347.295L337.409 94H328.841L322.295 70.4091H321.818L315.273 94H306.682ZM367.267 94.6818C363.858 94.6818 360.903 93.9318 358.403 92.4318C355.903 90.9318 353.964 88.8333 352.585 86.1364C351.222 83.4394 350.54 80.2879 350.54 76.6818C350.54 73.0758 351.222 69.9167 352.585 67.2045C353.964 64.4924 355.903 62.3864 358.403 60.8864C360.903 59.3864 363.858 58.6364 367.267 58.6364C370.676 58.6364 373.631 59.3864 376.131 60.8864C378.631 62.3864 380.563 64.4924 381.926 67.2045C383.305 69.9167 383.994 73.0758 383.994 76.6818C383.994 80.2879 383.305 83.4394 381.926 86.1364C380.563 88.8333 378.631 90.9318 376.131 92.4318C373.631 93.9318 370.676 94.6818 367.267 94.6818ZM367.312 88.0909C369.161 88.0909 370.706 87.5833 371.949 86.5682C373.191 85.5379 374.116 84.1591 374.722 82.4318C375.343 80.7045 375.653 78.7803 375.653 76.6591C375.653 74.5227 375.343 72.5909 374.722 70.8636C374.116 69.1212 373.191 67.7348 371.949 66.7045C370.706 65.6742 369.161 65.1591 367.312 65.1591C365.419 65.1591 363.843 65.6742 362.585 66.7045C361.343 67.7348 360.411 69.1212 359.79 70.8636C359.184 72.5909 358.881 74.5227 358.881 76.6591C358.881 78.7803 359.184 80.7045 359.79 82.4318C360.411 84.1591 361.343 85.5379 362.585 86.5682C363.843 87.5833 365.419 88.0909 367.312 88.0909ZM399.205 73.5455V94H390.977V59.0909H398.841V65.0227H399.25C400.053 63.0682 401.333 61.5152 403.091 60.3636C404.864 59.2121 407.053 58.6364 409.659 58.6364C412.068 58.6364 414.167 59.1515 415.955 60.1818C417.758 61.2121 419.152 62.7045 420.136 64.6591C421.136 66.6136 421.629 68.9848 421.614 71.7727V94H413.386V73.0455C413.386 70.7121 412.78 68.8864 411.568 67.5682C410.371 66.25 408.712 65.5909 406.591 65.5909C405.152 65.5909 403.871 65.9091 402.75 66.5455C401.644 67.1667 400.773 68.0682 400.136 69.25C399.515 70.4318 399.205 71.8636 399.205 73.5455ZM772.733 47.4545L771.983 80.3182H764.665L763.938 47.4545H772.733ZM768.324 94.5C766.945 94.5 765.763 94.0152 764.778 93.0455C763.809 92.0758 763.324 90.8939 763.324 89.5C763.324 88.1364 763.809 86.9697 764.778 86C765.763 85.0303 766.945 84.5455 768.324 84.5455C769.672 84.5455 770.839 85.0303 771.824 86C772.824 86.9697 773.324 88.1364 773.324 89.5C773.324 90.4242 773.089 91.2652 772.619 92.0227C772.165 92.7803 771.559 93.3864 770.801 93.8409C770.059 94.2803 769.233 94.5 768.324 94.5Z" fill="black"/>
<path d="M461.33 99.8182V41.6364H465.057V99.8182H461.33ZM470.307 61.4091C470.155 59.7424 469.481 58.447 468.284 57.5227C467.102 56.5833 465.413 56.1136 463.216 56.1136C461.761 56.1136 460.549 56.303 459.58 56.6818C458.61 57.0606 457.883 57.5833 457.398 58.25C456.913 58.9015 456.663 59.6515 456.648 60.5C456.617 61.197 456.754 61.8106 457.057 62.3409C457.375 62.8712 457.83 63.3409 458.42 63.75C459.027 64.1439 459.754 64.4924 460.602 64.7955C461.451 65.0985 462.405 65.3636 463.466 65.5909L467.466 66.5C469.769 67 471.799 67.6667 473.557 68.5C475.33 69.3333 476.814 70.3258 478.011 71.4773C479.223 72.6288 480.14 73.9545 480.761 75.4545C481.383 76.9545 481.701 78.6364 481.716 80.5C481.701 83.4394 480.958 85.9621 479.489 88.0682C478.019 90.1742 475.905 91.7879 473.148 92.9091C470.405 94.0303 467.095 94.5909 463.216 94.5909C459.322 94.5909 455.928 94.0076 453.034 92.8409C450.14 91.6742 447.89 89.9015 446.284 87.5227C444.678 85.1439 443.852 82.1364 443.807 78.5H454.58C454.67 80 455.072 81.25 455.784 82.25C456.496 83.25 457.473 84.0076 458.716 84.5227C459.973 85.0379 461.428 85.2955 463.08 85.2955C464.595 85.2955 465.883 85.0909 466.943 84.6818C468.019 84.2727 468.845 83.7045 469.42 82.9773C469.996 82.25 470.292 81.4167 470.307 80.4773C470.292 79.5985 470.019 78.8485 469.489 78.2273C468.958 77.5909 468.14 77.0455 467.034 76.5909C465.943 76.1212 464.549 75.6894 462.852 75.2955L457.989 74.1591C453.958 73.2348 450.784 71.7424 448.466 69.6818C446.148 67.6061 444.996 64.803 445.011 61.2727C444.996 58.3939 445.769 55.8712 447.33 53.7045C448.89 51.5379 451.049 49.8485 453.807 48.6364C456.564 47.4242 459.708 46.8182 463.239 46.8182C466.845 46.8182 469.973 47.4318 472.625 48.6591C475.292 49.8712 477.36 51.5758 478.83 53.7727C480.299 55.9697 481.049 58.5151 481.08 61.4091H470.307ZM508.83 47.4545V94H497.602V57.9545H497.33L486.92 64.3182V54.5909L498.398 47.4545H508.83ZM538.369 95.1364C534.309 95.1364 530.809 94.1742 527.869 92.25C524.93 90.3106 522.665 87.5303 521.074 83.9091C519.483 80.2727 518.695 75.9015 518.71 70.7955C518.725 65.6894 519.521 61.3561 521.097 57.7955C522.688 54.2197 524.945 51.5 527.869 49.6364C530.809 47.7576 534.309 46.8182 538.369 46.8182C542.43 46.8182 545.93 47.7576 548.869 49.6364C551.824 51.5 554.097 54.2197 555.688 57.7955C557.278 61.3712 558.066 65.7045 558.051 70.7955C558.051 75.9167 557.256 80.2955 555.665 83.9318C554.074 87.5682 551.809 90.3485 548.869 92.2727C545.945 94.1818 542.445 95.1364 538.369 95.1364ZM538.369 85.9318C540.794 85.9318 542.756 84.697 544.256 82.2273C545.756 79.7424 546.498 75.9318 546.483 70.7955C546.483 67.4318 546.142 64.6591 545.46 62.4773C544.778 60.2803 543.831 58.6439 542.619 57.5682C541.407 56.4924 539.991 55.9545 538.369 55.9545C535.96 55.9545 534.013 57.1742 532.528 59.6136C531.044 62.0379 530.294 65.7652 530.278 70.7955C530.263 74.2045 530.589 77.0303 531.256 79.2727C531.938 81.5152 532.892 83.1894 534.119 84.2955C535.347 85.3864 536.763 85.9318 538.369 85.9318ZM583.744 95.1364C579.684 95.1364 576.184 94.1742 573.244 92.25C570.305 90.3106 568.04 87.5303 566.449 83.9091C564.858 80.2727 564.07 75.9015 564.085 70.7955C564.1 65.6894 564.896 61.3561 566.472 57.7955C568.063 54.2197 570.32 51.5 573.244 49.6364C576.184 47.7576 579.684 46.8182 583.744 46.8182C587.805 46.8182 591.305 47.7576 594.244 49.6364C597.199 51.5 599.472 54.2197 601.062 57.7955C602.653 61.3712 603.441 65.7045 603.426 70.7955C603.426 75.9167 602.631 80.2955 601.04 83.9318C599.449 87.5682 597.184 90.3485 594.244 92.2727C591.32 94.1818 587.82 95.1364 583.744 95.1364ZM583.744 85.9318C586.169 85.9318 588.131 84.697 589.631 82.2273C591.131 79.7424 591.873 75.9318 591.858 70.7955C591.858 67.4318 591.517 64.6591 590.835 62.4773C590.153 60.2803 589.206 58.6439 587.994 57.5682C586.782 56.4924 585.366 55.9545 583.744 55.9545C581.335 55.9545 579.388 57.1742 577.903 59.6136C576.419 62.0379 575.669 65.7652 575.653 70.7955C575.638 74.2045 575.964 77.0303 576.631 79.2727C577.313 81.5152 578.267 83.1894 579.494 84.2955C580.722 85.3864 582.138 85.9318 583.744 85.9318ZM619.301 87.6364L619.097 90.1591C618.915 92.25 618.544 94.2879 617.983 96.2727C617.438 98.2727 616.854 100.068 616.233 101.659C615.612 103.25 615.119 104.485 614.756 105.364H607.756C607.998 104.485 608.324 103.25 608.733 101.659C609.157 100.068 609.551 98.2727 609.915 96.2727C610.278 94.2727 610.483 92.2424 610.528 90.1818L610.574 87.6364H619.301ZM644.994 95.1364C640.934 95.1364 637.434 94.1742 634.494 92.25C631.555 90.3106 629.29 87.5303 627.699 83.9091C626.108 80.2727 625.32 75.9015 625.335 70.7955C625.35 65.6894 626.146 61.3561 627.722 57.7955C629.313 54.2197 631.57 51.5 634.494 49.6364C637.434 47.7576 640.934 46.8182 644.994 46.8182C649.055 46.8182 652.555 47.7576 655.494 49.6364C658.449 51.5 660.722 54.2197 662.312 57.7955C663.903 61.3712 664.691 65.7045 664.676 70.7955C664.676 75.9167 663.881 80.2955 662.29 83.9318C660.699 87.5682 658.434 90.3485 655.494 92.2727C652.57 94.1818 649.07 95.1364 644.994 95.1364ZM644.994 85.9318C647.419 85.9318 649.381 84.697 650.881 82.2273C652.381 79.7424 653.123 75.9318 653.108 70.7955C653.108 67.4318 652.767 64.6591 652.085 62.4773C651.403 60.2803 650.456 58.6439 649.244 57.5682C648.032 56.4924 646.616 55.9545 644.994 55.9545C642.585 55.9545 640.638 57.1742 639.153 59.6136C637.669 62.0379 636.919 65.7652 636.903 70.7955C636.888 74.2045 637.214 77.0303 637.881 79.2727C638.563 81.5152 639.517 83.1894 640.744 84.2955C641.972 85.3864 643.388 85.9318 644.994 85.9318ZM690.369 95.1364C686.309 95.1364 682.809 94.1742 679.869 92.25C676.93 90.3106 674.665 87.5303 673.074 83.9091C671.483 80.2727 670.695 75.9015 670.71 70.7955C670.725 65.6894 671.521 61.3561 673.097 57.7955C674.688 54.2197 676.945 51.5 679.869 49.6364C682.809 47.7576 686.309 46.8182 690.369 46.8182C694.43 46.8182 697.93 47.7576 700.869 49.6364C703.824 51.5 706.097 54.2197 707.688 57.7955C709.278 61.3712 710.066 65.7045 710.051 70.7955C710.051 75.9167 709.256 80.2955 707.665 83.9318C706.074 87.5682 703.809 90.3485 700.869 92.2727C697.945 94.1818 694.445 95.1364 690.369 95.1364ZM690.369 85.9318C692.794 85.9318 694.756 84.697 696.256 82.2273C697.756 79.7424 698.498 75.9318 698.483 70.7955C698.483 67.4318 698.142 64.6591 697.46 62.4773C696.778 60.2803 695.831 58.6439 694.619 57.5682C693.407 56.4924 691.991 55.9545 690.369 55.9545C687.96 55.9545 686.013 57.1742 684.528 59.6136C683.044 62.0379 682.294 65.7652 682.278 70.7955C682.263 74.2045 682.589 77.0303 683.256 79.2727C683.938 81.5152 684.892 83.1894 686.119 84.2955C687.347 85.3864 688.763 85.9318 690.369 85.9318ZM735.744 95.1364C731.684 95.1364 728.184 94.1742 725.244 92.25C722.305 90.3106 720.04 87.5303 718.449 83.9091C716.858 80.2727 716.07 75.9015 716.085 70.7955C716.1 65.6894 716.896 61.3561 718.472 57.7955C720.063 54.2197 722.32 51.5 725.244 49.6364C728.184 47.7576 731.684 46.8182 735.744 46.8182C739.805 46.8182 743.305 47.7576 746.244 49.6364C749.199 51.5 751.472 54.2197 753.062 57.7955C754.653 61.3712 755.441 65.7045 755.426 70.7955C755.426 75.9167 754.631 80.2955 753.04 83.9318C751.449 87.5682 749.184 90.3485 746.244 92.2727C743.32 94.1818 739.82 95.1364 735.744 95.1364ZM735.744 85.9318C738.169 85.9318 740.131 84.697 741.631 82.2273C743.131 79.7424 743.873 75.9318 743.858 70.7955C743.858 67.4318 743.517 64.6591 742.835 62.4773C742.153 60.2803 741.206 58.6439 739.994 57.5682C738.782 56.4924 737.366 55.9545 735.744 55.9545C733.335 55.9545 731.388 57.1742 729.903 59.6136C728.419 62.0379 727.669 65.7652 727.653 70.7955C727.638 74.2045 727.964 77.0303 728.631 79.2727C729.313 81.5152 730.267 83.1894 731.494 84.2955C732.722 85.3864 734.138 85.9318 735.744 85.9318Z" fill="#DB3E31"/>
<path opacity="0.6" d="M46.3466 134.909H51.5739V155.364C51.5644 157.239 51.1667 158.853 50.3807 160.207C49.5947 161.552 48.4962 162.589 47.0852 163.318C45.6837 164.038 44.0502 164.398 42.1847 164.398C40.4801 164.398 38.946 164.095 37.5824 163.489C36.2282 162.873 35.1534 161.964 34.358 160.761C33.5625 159.559 33.1648 158.062 33.1648 156.273H38.4062C38.4157 157.059 38.5862 157.736 38.9176 158.304C39.2585 158.872 39.7273 159.308 40.3239 159.611C40.9205 159.914 41.607 160.065 42.3835 160.065C43.2263 160.065 43.9413 159.89 44.5284 159.54C45.1155 159.18 45.5606 158.65 45.8636 157.949C46.1761 157.248 46.3371 156.386 46.3466 155.364V134.909ZM70.9702 154.824V142.182H76.1122V164H71.1264V160.122H70.8991C70.4067 161.344 69.5971 162.343 68.4702 163.119C67.3527 163.896 65.9749 164.284 64.3366 164.284C62.9067 164.284 61.6425 163.967 60.544 163.332C59.455 162.688 58.6027 161.756 57.9872 160.534C57.3717 159.303 57.0639 157.816 57.0639 156.074V142.182H62.206V155.278C62.206 156.661 62.5848 157.759 63.3423 158.574C64.0999 159.388 65.0942 159.795 66.3253 159.795C67.0829 159.795 67.8168 159.611 68.527 159.241C69.2372 158.872 69.8196 158.323 70.2741 157.594C70.7382 156.855 70.9702 155.932 70.9702 154.824ZM98.6442 147.949L93.9567 148.46C93.8241 147.987 93.5921 147.542 93.2607 147.125C92.9387 146.708 92.5031 146.372 91.9538 146.116C91.4046 145.861 90.7322 145.733 89.9368 145.733C88.8667 145.733 87.9671 145.965 87.2379 146.429C86.5182 146.893 86.1631 147.494 86.1726 148.233C86.1631 148.867 86.3951 149.384 86.8686 149.781C87.3516 150.179 88.147 150.506 89.255 150.761L92.9766 151.557C95.041 152.002 96.575 152.707 97.5788 153.673C98.5921 154.639 99.1035 155.903 99.1129 157.466C99.1035 158.839 98.701 160.051 97.9055 161.102C97.1196 162.144 96.0258 162.958 94.6243 163.545C93.2228 164.133 91.6129 164.426 89.7947 164.426C87.1243 164.426 84.9747 163.867 83.3459 162.75C81.7171 161.623 80.7464 160.056 80.4339 158.048L85.4482 157.565C85.6754 158.55 86.1584 159.294 86.897 159.795C87.6357 160.297 88.5968 160.548 89.7805 160.548C91.0021 160.548 91.9822 160.297 92.7209 159.795C93.469 159.294 93.843 158.673 93.843 157.935C93.843 157.31 93.6016 156.794 93.1186 156.386C92.6451 155.979 91.9065 155.667 90.9027 155.449L87.1811 154.668C85.0883 154.232 83.54 153.498 82.5362 152.466C81.5324 151.424 81.0353 150.108 81.0447 148.517C81.0353 147.172 81.3999 146.008 82.1385 145.023C82.8866 144.028 83.9235 143.261 85.2493 142.722C86.5845 142.172 88.1233 141.898 89.8658 141.898C92.4226 141.898 94.4349 142.442 95.9027 143.531C97.38 144.62 98.2938 146.093 98.6442 147.949ZM114.248 142.182V146.159H101.705V142.182H114.248ZM104.802 136.955H109.944V157.438C109.944 158.129 110.048 158.659 110.256 159.028C110.474 159.388 110.758 159.634 111.109 159.767C111.459 159.9 111.847 159.966 112.273 159.966C112.595 159.966 112.889 159.942 113.154 159.895C113.429 159.848 113.637 159.805 113.779 159.767L114.646 163.787C114.371 163.882 113.978 163.986 113.467 164.099C112.965 164.213 112.349 164.279 111.62 164.298C110.332 164.336 109.172 164.142 108.14 163.716C107.108 163.28 106.289 162.608 105.683 161.699C105.086 160.79 104.792 159.653 104.802 158.29V136.955ZM128.47 172.182V142.182H133.527V145.79H133.825C134.09 145.259 134.464 144.696 134.947 144.099C135.43 143.493 136.084 142.977 136.908 142.551C137.732 142.116 138.783 141.898 140.061 141.898C141.747 141.898 143.267 142.329 144.621 143.19C145.984 144.043 147.064 145.307 147.859 146.983C148.664 148.65 149.067 150.695 149.067 153.119C149.067 155.515 148.674 157.551 147.888 159.227C147.102 160.903 146.032 162.182 144.678 163.062C143.323 163.943 141.789 164.384 140.075 164.384C138.825 164.384 137.788 164.175 136.964 163.759C136.141 163.342 135.478 162.84 134.976 162.253C134.483 161.656 134.1 161.093 133.825 160.562H133.612V172.182H128.47ZM133.513 153.091C133.513 154.502 133.712 155.738 134.109 156.798C134.517 157.859 135.099 158.687 135.857 159.284C136.624 159.871 137.552 160.165 138.641 160.165C139.777 160.165 140.729 159.862 141.496 159.256C142.263 158.64 142.84 157.802 143.229 156.741C143.626 155.671 143.825 154.455 143.825 153.091C143.825 151.737 143.631 150.534 143.243 149.483C142.855 148.432 142.277 147.608 141.51 147.011C140.743 146.415 139.786 146.116 138.641 146.116C137.542 146.116 136.609 146.405 135.842 146.983C135.075 147.561 134.493 148.37 134.095 149.412C133.707 150.454 133.513 151.68 133.513 153.091ZM159.749 164.44C158.366 164.44 157.121 164.194 156.013 163.702C154.914 163.2 154.043 162.461 153.399 161.486C152.765 160.51 152.447 159.308 152.447 157.878C152.447 156.647 152.675 155.629 153.129 154.824C153.584 154.019 154.204 153.375 154.99 152.892C155.776 152.409 156.661 152.045 157.646 151.798C158.641 151.543 159.668 151.358 160.729 151.244C162.007 151.112 163.044 150.993 163.839 150.889C164.635 150.776 165.213 150.605 165.572 150.378C165.942 150.141 166.126 149.777 166.126 149.284V149.199C166.126 148.129 165.809 147.3 165.175 146.713C164.54 146.126 163.626 145.832 162.433 145.832C161.174 145.832 160.175 146.107 159.436 146.656C158.707 147.205 158.214 147.854 157.959 148.602L153.158 147.92C153.536 146.595 154.161 145.487 155.033 144.597C155.904 143.697 156.969 143.025 158.229 142.58C159.488 142.125 160.88 141.898 162.405 141.898C163.456 141.898 164.502 142.021 165.544 142.267C166.586 142.513 167.537 142.92 168.399 143.489C169.261 144.047 169.952 144.81 170.473 145.776C171.003 146.741 171.268 147.949 171.268 149.398V164H166.325V161.003H166.155C165.842 161.609 165.402 162.177 164.834 162.707C164.275 163.228 163.57 163.65 162.717 163.972C161.875 164.284 160.885 164.44 159.749 164.44ZM161.084 160.662C162.116 160.662 163.011 160.458 163.768 160.051C164.526 159.634 165.108 159.085 165.516 158.403C165.932 157.722 166.141 156.978 166.141 156.173V153.602C165.98 153.735 165.705 153.858 165.317 153.972C164.938 154.085 164.512 154.185 164.038 154.27C163.565 154.355 163.096 154.431 162.632 154.497C162.168 154.563 161.766 154.62 161.425 154.668C160.658 154.772 159.971 154.942 159.365 155.179C158.759 155.416 158.281 155.747 157.93 156.173C157.58 156.59 157.405 157.13 157.405 157.793C157.405 158.74 157.75 159.455 158.442 159.938C159.133 160.42 160.014 160.662 161.084 160.662ZM178.854 172.182C178.153 172.182 177.504 172.125 176.908 172.011C176.321 171.907 175.852 171.784 175.501 171.642L176.695 167.636C177.443 167.854 178.11 167.958 178.697 167.949C179.285 167.939 179.801 167.755 180.246 167.395C180.7 167.045 181.084 166.457 181.396 165.634L181.837 164.455L173.925 142.182H179.379L184.408 158.659H184.635L189.678 142.182H195.146L186.411 166.642C186.003 167.797 185.464 168.787 184.791 169.611C184.119 170.444 183.295 171.079 182.32 171.514C181.354 171.959 180.198 172.182 178.854 172.182ZM217.945 167.636V131.273H220.274V167.636H217.945ZM224.663 142.906C224.531 141.666 223.972 140.7 222.987 140.009C222.012 139.317 220.743 138.972 219.18 138.972C218.082 138.972 217.14 139.137 216.354 139.469C215.568 139.8 214.966 140.25 214.55 140.818C214.133 141.386 213.92 142.035 213.911 142.764C213.911 143.37 214.048 143.896 214.322 144.341C214.607 144.786 214.99 145.165 215.473 145.477C215.956 145.78 216.491 146.036 217.078 146.244C217.665 146.453 218.257 146.628 218.854 146.77L221.581 147.452C222.679 147.707 223.735 148.053 224.749 148.489C225.771 148.924 226.685 149.473 227.49 150.136C228.304 150.799 228.948 151.599 229.422 152.537C229.895 153.474 230.132 154.573 230.132 155.832C230.132 157.537 229.696 159.038 228.825 160.335C227.954 161.623 226.695 162.632 225.047 163.361C223.409 164.08 221.425 164.44 219.095 164.44C216.832 164.44 214.867 164.09 213.2 163.389C211.543 162.688 210.246 161.666 209.308 160.321C208.38 158.976 207.878 157.338 207.803 155.406H212.987C213.063 156.42 213.375 157.262 213.925 157.935C214.474 158.607 215.189 159.109 216.07 159.44C216.96 159.772 217.954 159.938 219.053 159.938C220.198 159.938 221.202 159.767 222.064 159.426C222.935 159.076 223.617 158.593 224.109 157.977C224.602 157.352 224.853 156.623 224.862 155.79C224.853 155.032 224.63 154.407 224.195 153.915C223.759 153.413 223.148 152.996 222.362 152.665C221.586 152.324 220.677 152.021 219.635 151.756L216.325 150.903C213.929 150.288 212.036 149.355 210.643 148.105C209.261 146.846 208.57 145.174 208.57 143.091C208.57 141.377 209.034 139.876 209.962 138.588C210.899 137.3 212.173 136.301 213.783 135.591C215.393 134.871 217.215 134.511 219.251 134.511C221.316 134.511 223.125 134.871 224.678 135.591C226.24 136.301 227.466 137.291 228.357 138.56C229.247 139.819 229.706 141.268 229.734 142.906H224.663ZM246.379 134.909V164H241.109V140.037H240.938L234.134 144.384V139.554L241.364 134.909H246.379ZM264.518 164.554C262.179 164.554 260.171 163.962 258.495 162.778C256.828 161.585 255.545 159.866 254.646 157.622C253.755 155.368 253.31 152.655 253.31 149.483C253.32 146.311 253.77 143.612 254.66 141.386C255.559 139.152 256.843 137.447 258.509 136.273C260.185 135.098 262.188 134.511 264.518 134.511C266.847 134.511 268.85 135.098 270.526 136.273C272.202 137.447 273.486 139.152 274.376 141.386C275.275 143.621 275.725 146.32 275.725 149.483C275.725 152.665 275.275 155.383 274.376 157.636C273.486 159.881 272.202 161.595 270.526 162.778C268.86 163.962 266.857 164.554 264.518 164.554ZM264.518 160.108C266.336 160.108 267.771 159.213 268.822 157.423C269.882 155.624 270.413 152.977 270.413 149.483C270.413 147.172 270.171 145.231 269.688 143.659C269.205 142.087 268.523 140.903 267.643 140.108C266.762 139.303 265.72 138.901 264.518 138.901C262.709 138.901 261.279 139.8 260.228 141.599C259.177 143.389 258.647 146.017 258.637 149.483C258.628 151.803 258.86 153.754 259.333 155.335C259.816 156.917 260.498 158.11 261.379 158.915C262.259 159.71 263.306 160.108 264.518 160.108ZM291.197 164.554C288.858 164.554 286.851 163.962 285.175 162.778C283.508 161.585 282.225 159.866 281.325 157.622C280.435 155.368 279.99 152.655 279.99 149.483C280 146.311 280.449 143.612 281.339 141.386C282.239 139.152 283.522 137.447 285.189 136.273C286.865 135.098 288.868 134.511 291.197 134.511C293.527 134.511 295.53 135.098 297.206 136.273C298.882 137.447 300.165 139.152 301.055 141.386C301.955 143.621 302.405 146.32 302.405 149.483C302.405 152.665 301.955 155.383 301.055 157.636C300.165 159.881 298.882 161.595 297.206 162.778C295.539 163.962 293.536 164.554 291.197 164.554ZM291.197 160.108C293.016 160.108 294.45 159.213 295.501 157.423C296.562 155.624 297.092 152.977 297.092 149.483C297.092 147.172 296.851 145.231 296.368 143.659C295.885 142.087 295.203 140.903 294.322 140.108C293.442 139.303 292.4 138.901 291.197 138.901C289.389 138.901 287.959 139.8 286.908 141.599C285.857 143.389 285.326 146.017 285.317 149.483C285.307 151.803 285.539 153.754 286.013 155.335C286.496 156.917 287.178 158.11 288.058 158.915C288.939 159.71 289.985 160.108 291.197 160.108ZM323.381 164.44C321.999 164.44 320.754 164.194 319.646 163.702C318.547 163.2 317.676 162.461 317.032 161.486C316.397 160.51 316.08 159.308 316.08 157.878C316.08 156.647 316.308 155.629 316.762 154.824C317.217 154.019 317.837 153.375 318.623 152.892C319.409 152.409 320.294 152.045 321.279 151.798C322.273 151.543 323.301 151.358 324.362 151.244C325.64 151.112 326.677 150.993 327.472 150.889C328.268 150.776 328.845 150.605 329.205 150.378C329.575 150.141 329.759 149.777 329.759 149.284V149.199C329.759 148.129 329.442 147.3 328.808 146.713C328.173 146.126 327.259 145.832 326.066 145.832C324.807 145.832 323.808 146.107 323.069 146.656C322.34 147.205 321.847 147.854 321.592 148.602L316.79 147.92C317.169 146.595 317.794 145.487 318.665 144.597C319.537 143.697 320.602 143.025 321.862 142.58C323.121 142.125 324.513 141.898 326.038 141.898C327.089 141.898 328.135 142.021 329.177 142.267C330.219 142.513 331.17 142.92 332.032 143.489C332.894 144.047 333.585 144.81 334.106 145.776C334.636 146.741 334.901 147.949 334.901 149.398V164H329.958V161.003H329.788C329.475 161.609 329.035 162.177 328.467 162.707C327.908 163.228 327.202 163.65 326.35 163.972C325.507 164.284 324.518 164.44 323.381 164.44ZM324.717 160.662C325.749 160.662 326.644 160.458 327.401 160.051C328.159 159.634 328.741 159.085 329.148 158.403C329.565 157.722 329.773 156.978 329.773 156.173V153.602C329.612 153.735 329.338 153.858 328.95 153.972C328.571 154.085 328.145 154.185 327.671 154.27C327.198 154.355 326.729 154.431 326.265 154.497C325.801 154.563 325.398 154.62 325.058 154.668C324.29 154.772 323.604 154.942 322.998 155.179C322.392 155.416 321.914 155.747 321.563 156.173C321.213 156.59 321.038 157.13 321.038 157.793C321.038 158.74 321.383 159.455 322.075 159.938C322.766 160.42 323.647 160.662 324.717 160.662ZM357.316 147.949L352.629 148.46C352.496 147.987 352.264 147.542 351.933 147.125C351.611 146.708 351.175 146.372 350.626 146.116C350.076 145.861 349.404 145.733 348.609 145.733C347.539 145.733 346.639 145.965 345.91 146.429C345.19 146.893 344.835 147.494 344.844 148.233C344.835 148.867 345.067 149.384 345.54 149.781C346.023 150.179 346.819 150.506 347.927 150.761L351.648 151.557C353.713 152.002 355.247 152.707 356.251 153.673C357.264 154.639 357.775 155.903 357.785 157.466C357.775 158.839 357.373 160.051 356.577 161.102C355.791 162.144 354.698 162.958 353.296 163.545C351.895 164.133 350.285 164.426 348.467 164.426C345.796 164.426 343.647 163.867 342.018 162.75C340.389 161.623 339.418 160.056 339.106 158.048L344.12 157.565C344.347 158.55 344.83 159.294 345.569 159.795C346.308 160.297 347.269 160.548 348.452 160.548C349.674 160.548 350.654 160.297 351.393 159.795C352.141 159.294 352.515 158.673 352.515 157.935C352.515 157.31 352.273 156.794 351.79 156.386C351.317 155.979 350.578 155.667 349.575 155.449L345.853 154.668C343.76 154.232 342.212 153.498 341.208 152.466C340.204 151.424 339.707 150.108 339.717 148.517C339.707 147.172 340.072 146.008 340.81 145.023C341.558 144.028 342.595 143.261 343.921 142.722C345.256 142.172 346.795 141.898 348.538 141.898C351.094 141.898 353.107 142.442 354.575 143.531C356.052 144.62 356.966 146.093 357.316 147.949ZM371.947 172.182V142.182H377.004V145.79H377.302C377.567 145.259 377.941 144.696 378.424 144.099C378.907 143.493 379.56 142.977 380.384 142.551C381.208 142.116 382.259 141.898 383.538 141.898C385.223 141.898 386.743 142.329 388.097 143.19C389.461 144.043 390.54 145.307 391.336 146.983C392.141 148.65 392.543 150.695 392.543 153.119C392.543 155.515 392.15 157.551 391.364 159.227C390.578 160.903 389.508 162.182 388.154 163.062C386.8 163.943 385.266 164.384 383.552 164.384C382.302 164.384 381.265 164.175 380.441 163.759C379.617 163.342 378.954 162.84 378.452 162.253C377.96 161.656 377.576 161.093 377.302 160.562H377.089V172.182H371.947ZM376.989 153.091C376.989 154.502 377.188 155.738 377.586 156.798C377.993 157.859 378.576 158.687 379.333 159.284C380.1 159.871 381.028 160.165 382.117 160.165C383.254 160.165 384.205 159.862 384.972 159.256C385.739 158.64 386.317 157.802 386.705 156.741C387.103 155.671 387.302 154.455 387.302 153.091C387.302 151.737 387.108 150.534 386.719 149.483C386.331 148.432 385.754 147.608 384.987 147.011C384.219 146.415 383.263 146.116 382.117 146.116C381.019 146.116 380.086 146.405 379.319 146.983C378.552 147.561 377.969 148.37 377.572 149.412C377.183 150.454 376.989 151.68 376.989 153.091ZM396.947 164V142.182H401.933V145.818H402.16C402.558 144.559 403.239 143.588 404.205 142.906C405.181 142.215 406.293 141.869 407.543 141.869C407.827 141.869 408.145 141.884 408.495 141.912C408.855 141.931 409.153 141.964 409.39 142.011V146.741C409.172 146.666 408.826 146.599 408.353 146.543C407.889 146.476 407.439 146.443 407.004 146.443C406.066 146.443 405.223 146.647 404.475 147.054C403.737 147.452 403.154 148.006 402.728 148.716C402.302 149.426 402.089 150.245 402.089 151.173V164H396.947ZM421.425 164.426C419.294 164.426 417.447 163.957 415.885 163.02C414.322 162.082 413.11 160.771 412.249 159.085C411.396 157.4 410.97 155.43 410.97 153.176C410.97 150.922 411.396 148.948 412.249 147.253C413.11 145.558 414.322 144.241 415.885 143.304C417.447 142.366 419.294 141.898 421.425 141.898C423.555 141.898 425.402 142.366 426.964 143.304C428.527 144.241 429.734 145.558 430.587 147.253C431.448 148.948 431.879 150.922 431.879 153.176C431.879 155.43 431.448 157.4 430.587 159.085C429.734 160.771 428.527 162.082 426.964 163.02C425.402 163.957 423.555 164.426 421.425 164.426ZM421.453 160.307C422.608 160.307 423.574 159.99 424.351 159.355C425.127 158.711 425.705 157.849 426.084 156.77C426.472 155.69 426.666 154.488 426.666 153.162C426.666 151.827 426.472 150.619 426.084 149.54C425.705 148.451 425.127 147.584 424.351 146.94C423.574 146.296 422.608 145.974 421.453 145.974C420.269 145.974 419.285 146.296 418.499 146.94C417.722 147.584 417.14 148.451 416.751 149.54C416.373 150.619 416.183 151.827 416.183 153.162C416.183 154.488 416.373 155.69 416.751 156.77C417.14 157.849 417.722 158.711 418.499 159.355C419.285 159.99 420.269 160.307 421.453 160.307ZM445.761 164.426C443.583 164.426 441.712 163.948 440.15 162.991C438.597 162.035 437.399 160.714 436.556 159.028C435.723 157.333 435.306 155.383 435.306 153.176C435.306 150.96 435.732 149.005 436.585 147.31C437.437 145.605 438.639 144.279 440.192 143.332C441.755 142.376 443.602 141.898 445.732 141.898C447.503 141.898 449.07 142.224 450.434 142.878C451.807 143.522 452.901 144.436 453.715 145.619C454.53 146.794 454.994 148.167 455.107 149.739H450.192C449.994 148.687 449.52 147.812 448.772 147.111C448.033 146.401 447.044 146.045 445.803 146.045C444.752 146.045 443.829 146.33 443.033 146.898C442.238 147.456 441.618 148.261 441.173 149.312C440.737 150.364 440.519 151.623 440.519 153.091C440.519 154.578 440.737 155.856 441.173 156.926C441.608 157.987 442.219 158.806 443.005 159.384C443.8 159.952 444.733 160.236 445.803 160.236C446.561 160.236 447.238 160.094 447.835 159.81C448.441 159.516 448.947 159.095 449.354 158.545C449.762 157.996 450.041 157.329 450.192 156.543H455.107C454.984 158.086 454.53 159.455 453.744 160.648C452.958 161.831 451.888 162.759 450.533 163.432C449.179 164.095 447.588 164.426 445.761 164.426ZM468.989 164.426C466.801 164.426 464.912 163.972 463.321 163.062C461.74 162.144 460.523 160.847 459.67 159.17C458.818 157.485 458.392 155.501 458.392 153.219C458.392 150.974 458.818 149.005 459.67 147.31C460.532 145.605 461.735 144.279 463.278 143.332C464.822 142.376 466.635 141.898 468.719 141.898C470.063 141.898 471.332 142.116 472.526 142.551C473.728 142.977 474.789 143.64 475.707 144.54C476.635 145.439 477.365 146.585 477.895 147.977C478.425 149.36 478.69 151.008 478.69 152.92V154.497H460.807V151.031H473.761C473.752 150.046 473.539 149.17 473.122 148.403C472.705 147.627 472.123 147.016 471.375 146.571C470.636 146.126 469.775 145.903 468.79 145.903C467.739 145.903 466.815 146.159 466.02 146.67C465.224 147.172 464.604 147.835 464.159 148.659C463.723 149.473 463.501 150.368 463.491 151.344V154.369C463.491 155.638 463.723 156.727 464.188 157.636C464.652 158.536 465.3 159.227 466.134 159.71C466.967 160.184 467.942 160.42 469.06 160.42C469.808 160.42 470.485 160.316 471.091 160.108C471.697 159.89 472.223 159.573 472.668 159.156C473.113 158.74 473.449 158.223 473.676 157.608L478.477 158.148C478.174 159.417 477.597 160.525 476.744 161.472C475.902 162.409 474.822 163.138 473.506 163.659C472.189 164.17 470.684 164.426 468.989 164.426ZM500.285 147.949L495.597 148.46C495.465 147.987 495.233 147.542 494.901 147.125C494.579 146.708 494.144 146.372 493.594 146.116C493.045 145.861 492.373 145.733 491.577 145.733C490.507 145.733 489.608 145.965 488.879 146.429C488.159 146.893 487.804 147.494 487.813 148.233C487.804 148.867 488.036 149.384 488.509 149.781C488.992 150.179 489.788 150.506 490.896 150.761L494.617 151.557C496.682 152.002 498.216 152.707 499.219 153.673C500.233 154.639 500.744 155.903 500.754 157.466C500.744 158.839 500.342 160.051 499.546 161.102C498.76 162.144 497.666 162.958 496.265 163.545C494.863 164.133 493.254 164.426 491.435 164.426C488.765 164.426 486.615 163.867 484.987 162.75C483.358 161.623 482.387 160.056 482.075 158.048L487.089 157.565C487.316 158.55 487.799 159.294 488.538 159.795C489.276 160.297 490.237 160.548 491.421 160.548C492.643 160.548 493.623 160.297 494.362 159.795C495.11 159.294 495.484 158.673 495.484 157.935C495.484 157.31 495.242 156.794 494.759 156.386C494.286 155.979 493.547 155.667 492.543 155.449L488.822 154.668C486.729 154.232 485.181 153.498 484.177 152.466C483.173 151.424 482.676 150.108 482.685 148.517C482.676 147.172 483.04 146.008 483.779 145.023C484.527 144.028 485.564 143.261 486.89 142.722C488.225 142.172 489.764 141.898 491.506 141.898C494.063 141.898 496.076 142.442 497.543 143.531C499.021 144.62 499.934 146.093 500.285 147.949ZM522.238 147.949L517.55 148.46C517.418 147.987 517.186 147.542 516.854 147.125C516.532 146.708 516.097 146.372 515.548 146.116C514.998 145.861 514.326 145.733 513.531 145.733C512.46 145.733 511.561 145.965 510.832 146.429C510.112 146.893 509.757 147.494 509.766 148.233C509.757 148.867 509.989 149.384 510.462 149.781C510.945 150.179 511.741 150.506 512.849 150.761L516.57 151.557C518.635 152.002 520.169 152.707 521.173 153.673C522.186 154.639 522.697 155.903 522.707 157.466C522.697 158.839 522.295 160.051 521.499 161.102C520.713 162.144 519.62 162.958 518.218 163.545C516.817 164.133 515.207 164.426 513.388 164.426C510.718 164.426 508.568 163.867 506.94 162.75C505.311 161.623 504.34 160.056 504.028 158.048L509.042 157.565C509.269 158.55 509.752 159.294 510.491 159.795C511.229 160.297 512.191 160.548 513.374 160.548C514.596 160.548 515.576 160.297 516.315 159.795C517.063 159.294 517.437 158.673 517.437 157.935C517.437 157.31 517.195 156.794 516.712 156.386C516.239 155.979 515.5 155.667 514.496 155.449L510.775 154.668C508.682 154.232 507.134 153.498 506.13 152.466C505.126 151.424 504.629 150.108 504.638 148.517C504.629 147.172 504.994 146.008 505.732 145.023C506.48 144.028 507.517 143.261 508.843 142.722C510.178 142.172 511.717 141.898 513.46 141.898C516.016 141.898 518.029 142.442 519.496 143.531C520.974 144.62 521.888 146.093 522.238 147.949ZM526.947 164V142.182H532.089V164H526.947ZM529.532 139.085C528.718 139.085 528.017 138.815 527.43 138.276C526.843 137.726 526.549 137.068 526.549 136.301C526.549 135.525 526.843 134.866 527.43 134.327C528.017 133.777 528.718 133.503 529.532 133.503C530.356 133.503 531.057 133.777 531.634 134.327C532.221 134.866 532.515 135.525 532.515 136.301C532.515 137.068 532.221 137.726 531.634 138.276C531.057 138.815 530.356 139.085 529.532 139.085ZM542.518 151.216V164H537.376V142.182H542.291V145.889H542.547C543.049 144.668 543.849 143.697 544.947 142.977C546.055 142.258 547.424 141.898 549.053 141.898C550.558 141.898 551.87 142.22 552.987 142.864C554.114 143.508 554.985 144.44 555.601 145.662C556.226 146.884 556.534 148.366 556.524 150.108V164H551.382V150.903C551.382 149.445 551.003 148.304 550.246 147.48C549.498 146.656 548.461 146.244 547.135 146.244C546.235 146.244 545.435 146.443 544.734 146.841C544.043 147.229 543.499 147.793 543.101 148.531C542.713 149.27 542.518 150.165 542.518 151.216ZM571.24 172.636C569.393 172.636 567.807 172.385 566.482 171.884C565.156 171.391 564.09 170.728 563.286 169.895C562.481 169.062 561.922 168.138 561.609 167.125L566.24 166.003C566.448 166.429 566.751 166.85 567.149 167.267C567.547 167.693 568.082 168.044 568.754 168.318C569.436 168.602 570.293 168.744 571.325 168.744C572.784 168.744 573.991 168.389 574.947 167.679C575.904 166.978 576.382 165.823 576.382 164.213V160.08H576.126C575.861 160.61 575.473 161.154 574.962 161.713C574.46 162.272 573.792 162.741 572.959 163.119C572.135 163.498 571.098 163.688 569.848 163.688C568.172 163.688 566.652 163.295 565.288 162.509C563.934 161.713 562.855 160.529 562.05 158.957C561.254 157.376 560.857 155.397 560.857 153.02C560.857 150.624 561.254 148.602 562.05 146.955C562.855 145.297 563.939 144.043 565.303 143.19C566.666 142.329 568.186 141.898 569.862 141.898C571.141 141.898 572.192 142.116 573.016 142.551C573.849 142.977 574.512 143.493 575.004 144.099C575.497 144.696 575.871 145.259 576.126 145.79H576.411V142.182H581.482V164.355C581.482 166.221 581.036 167.764 580.146 168.986C579.256 170.207 578.039 171.121 576.496 171.727C574.952 172.333 573.2 172.636 571.24 172.636ZM571.283 159.653C572.372 159.653 573.3 159.388 574.067 158.858C574.834 158.328 575.416 157.565 575.814 156.571C576.212 155.577 576.411 154.384 576.411 152.991C576.411 151.618 576.212 150.416 575.814 149.384C575.426 148.351 574.848 147.551 574.081 146.983C573.323 146.405 572.391 146.116 571.283 146.116C570.137 146.116 569.18 146.415 568.413 147.011C567.646 147.608 567.069 148.427 566.68 149.469C566.292 150.501 566.098 151.675 566.098 152.991C566.098 154.327 566.292 155.496 566.68 156.5C567.078 157.494 567.661 158.271 568.428 158.83C569.204 159.379 570.156 159.653 571.283 159.653ZM607.724 142.182V146.159H594.827V142.182H607.724ZM598.051 164V140.122C598.051 138.654 598.354 137.433 598.96 136.457C599.576 135.482 600.4 134.753 601.432 134.27C602.464 133.787 603.61 133.545 604.869 133.545C605.759 133.545 606.55 133.616 607.241 133.759C607.933 133.901 608.444 134.028 608.776 134.142L607.753 138.119C607.535 138.053 607.26 137.987 606.929 137.92C606.598 137.845 606.228 137.807 605.821 137.807C604.865 137.807 604.188 138.039 603.79 138.503C603.402 138.957 603.207 139.611 603.207 140.463V164H598.051ZM620.59 164.426C618.403 164.426 616.513 163.972 614.923 163.062C613.341 162.144 612.124 160.847 611.272 159.17C610.42 157.485 609.994 155.501 609.994 153.219C609.994 150.974 610.42 149.005 611.272 147.31C612.134 145.605 613.336 144.279 614.88 143.332C616.424 142.376 618.237 141.898 620.32 141.898C621.665 141.898 622.934 142.116 624.127 142.551C625.33 142.977 626.39 143.64 627.309 144.54C628.237 145.439 628.966 146.585 629.496 147.977C630.027 149.36 630.292 151.008 630.292 152.92V154.497H612.408V151.031H625.363C625.353 150.046 625.14 149.17 624.724 148.403C624.307 147.627 623.725 147.016 622.977 146.571C622.238 146.126 621.376 145.903 620.391 145.903C619.34 145.903 618.417 146.159 617.621 146.67C616.826 147.172 616.206 147.835 615.761 148.659C615.325 149.473 615.103 150.368 615.093 151.344V154.369C615.093 155.638 615.325 156.727 615.789 157.636C616.253 158.536 616.902 159.227 617.735 159.71C618.568 160.184 619.544 160.42 620.661 160.42C621.409 160.42 622.086 160.316 622.692 160.108C623.299 159.89 623.824 159.573 624.269 159.156C624.714 158.74 625.05 158.223 625.278 157.608L630.079 158.148C629.776 159.417 629.198 160.525 628.346 161.472C627.503 162.409 626.424 163.138 625.107 163.659C623.791 164.17 622.285 164.426 620.59 164.426ZM644.301 164.426C642.114 164.426 640.224 163.972 638.634 163.062C637.052 162.144 635.835 160.847 634.983 159.17C634.131 157.485 633.705 155.501 633.705 153.219C633.705 150.974 634.131 149.005 634.983 147.31C635.845 145.605 637.047 144.279 638.591 143.332C640.134 142.376 641.948 141.898 644.031 141.898C645.376 141.898 646.645 142.116 647.838 142.551C649.041 142.977 650.101 143.64 651.02 144.54C651.948 145.439 652.677 146.585 653.207 147.977C653.738 149.36 654.003 151.008 654.003 152.92V154.497H636.119V151.031H649.074C649.064 150.046 648.851 149.17 648.435 148.403C648.018 147.627 647.436 147.016 646.688 146.571C645.949 146.126 645.087 145.903 644.102 145.903C643.051 145.903 642.128 146.159 641.332 146.67C640.537 147.172 639.917 147.835 639.472 148.659C639.036 149.473 638.813 150.368 638.804 151.344V154.369C638.804 155.638 639.036 156.727 639.5 157.636C639.964 158.536 640.613 159.227 641.446 159.71C642.279 160.184 643.255 160.42 644.372 160.42C645.12 160.42 645.797 160.316 646.403 160.108C647.009 159.89 647.535 159.573 647.98 159.156C648.425 158.74 648.761 158.223 648.989 157.608L653.79 158.148C653.487 159.417 652.909 160.525 652.057 161.472C651.214 162.409 650.134 163.138 648.818 163.659C647.502 164.17 645.996 164.426 644.301 164.426ZM661.521 164.312C660.659 164.312 659.92 164.009 659.305 163.403C658.689 162.797 658.386 162.059 658.396 161.188C658.386 160.335 658.689 159.606 659.305 159C659.92 158.394 660.659 158.091 661.521 158.091C662.354 158.091 663.078 158.394 663.694 159C664.319 159.606 664.636 160.335 664.646 161.188C664.636 161.765 664.485 162.291 664.191 162.764C663.907 163.238 663.528 163.616 663.055 163.901C662.591 164.175 662.079 164.312 661.521 164.312Z" fill="black"/>
<path opacity="0.5" d="M32.7045 236.727H37.4659L43.1591 247.023H43.3864L49.0795 236.727H53.8409L45.375 251.318V260H41.1705V251.318L32.7045 236.727ZM61.0085 260.341C59.304 260.341 57.8267 259.966 56.5767 259.216C55.3267 258.466 54.357 257.417 53.6676 256.068C52.9858 254.72 52.6449 253.144 52.6449 251.341C52.6449 249.538 52.9858 247.958 53.6676 246.602C54.357 245.246 55.3267 244.193 56.5767 243.443C57.8267 242.693 59.304 242.318 61.0085 242.318C62.7131 242.318 64.1903 242.693 65.4403 243.443C66.6903 244.193 67.6563 245.246 68.3381 246.602C69.0275 247.958 69.3722 249.538 69.3722 251.341C69.3722 253.144 69.0275 254.72 68.3381 256.068C67.6563 257.417 66.6903 258.466 65.4403 259.216C64.1903 259.966 62.7131 260.341 61.0085 260.341ZM61.0312 257.045C61.9555 257.045 62.7282 256.792 63.3494 256.284C63.9706 255.769 64.4328 255.08 64.7358 254.216C65.0464 253.352 65.2017 252.39 65.2017 251.33C65.2017 250.261 65.0464 249.295 64.7358 248.432C64.4328 247.561 63.9706 246.867 63.3494 246.352C62.7282 245.837 61.9555 245.58 61.0312 245.58C60.0843 245.58 59.2964 245.837 58.6676 246.352C58.0464 246.867 57.5805 247.561 57.2699 248.432C56.9669 249.295 56.8153 250.261 56.8153 251.33C56.8153 252.39 56.9669 253.352 57.2699 254.216C57.5805 255.08 58.0464 255.769 58.6676 256.284C59.2964 256.792 60.0843 257.045 61.0312 257.045ZM83.9886 252.659V242.545H88.1023V260H84.1136V256.898H83.9318C83.5379 257.875 82.8902 258.674 81.9886 259.295C81.0947 259.917 79.9924 260.227 78.6818 260.227C77.5379 260.227 76.5265 259.973 75.6477 259.466C74.7765 258.951 74.0947 258.205 73.6023 257.227C73.1098 256.242 72.8636 255.053 72.8636 253.659V242.545H76.9773V253.023C76.9773 254.129 77.2803 255.008 77.8864 255.659C78.4924 256.311 79.2879 256.636 80.2727 256.636C80.8788 256.636 81.4659 256.489 82.0341 256.193C82.6023 255.898 83.0682 255.458 83.4318 254.875C83.803 254.284 83.9886 253.545 83.9886 252.659ZM114.065 247.159L110.315 247.568C110.209 247.189 110.024 246.833 109.759 246.5C109.501 246.167 109.152 245.898 108.713 245.693C108.274 245.489 107.736 245.386 107.099 245.386C106.243 245.386 105.524 245.572 104.94 245.943C104.365 246.314 104.08 246.795 104.088 247.386C104.08 247.894 104.266 248.307 104.645 248.625C105.031 248.943 105.668 249.205 106.554 249.409L109.531 250.045C111.183 250.402 112.41 250.966 113.213 251.739C114.024 252.511 114.433 253.523 114.44 254.773C114.433 255.871 114.111 256.841 113.474 257.682C112.846 258.515 111.971 259.167 110.849 259.636C109.728 260.106 108.44 260.341 106.986 260.341C104.849 260.341 103.13 259.894 101.827 259C100.524 258.098 99.7472 256.845 99.4972 255.239L103.509 254.852C103.69 255.64 104.077 256.235 104.668 256.636C105.259 257.038 106.027 257.239 106.974 257.239C107.952 257.239 108.736 257.038 109.327 256.636C109.925 256.235 110.224 255.739 110.224 255.148C110.224 254.648 110.031 254.235 109.645 253.909C109.266 253.583 108.675 253.333 107.872 253.159L104.895 252.534C103.221 252.186 101.982 251.598 101.179 250.773C100.376 249.939 99.9782 248.886 99.9858 247.614C99.9782 246.538 100.27 245.606 100.861 244.818C101.459 244.023 102.289 243.409 103.349 242.977C104.418 242.538 105.649 242.318 107.043 242.318C109.088 242.318 110.698 242.754 111.872 243.625C113.054 244.496 113.785 245.674 114.065 247.159ZM121.946 249.773V260H117.832V236.727H121.855V245.511H122.06C122.469 244.527 123.101 243.75 123.957 243.182C124.821 242.606 125.92 242.318 127.253 242.318C128.465 242.318 129.522 242.572 130.423 243.08C131.325 243.587 132.022 244.33 132.514 245.307C133.014 246.284 133.264 247.477 133.264 248.886V260H129.151V249.523C129.151 248.348 128.848 247.436 128.241 246.784C127.643 246.125 126.802 245.795 125.719 245.795C124.991 245.795 124.34 245.955 123.764 246.273C123.196 246.583 122.749 247.034 122.423 247.625C122.105 248.216 121.946 248.932 121.946 249.773ZM145.071 260.341C143.366 260.341 141.889 259.966 140.639 259.216C139.389 258.466 138.42 257.417 137.73 256.068C137.048 254.72 136.707 253.144 136.707 251.341C136.707 249.538 137.048 247.958 137.73 246.602C138.42 245.246 139.389 244.193 140.639 243.443C141.889 242.693 143.366 242.318 145.071 242.318C146.776 242.318 148.253 242.693 149.503 243.443C150.753 244.193 151.719 245.246 152.401 246.602C153.09 247.958 153.435 249.538 153.435 251.341C153.435 253.144 153.09 254.72 152.401 256.068C151.719 257.417 150.753 258.466 149.503 259.216C148.253 259.966 146.776 260.341 145.071 260.341ZM145.094 257.045C146.018 257.045 146.791 256.792 147.412 256.284C148.033 255.769 148.495 255.08 148.798 254.216C149.109 253.352 149.264 252.39 149.264 251.33C149.264 250.261 149.109 249.295 148.798 248.432C148.495 247.561 148.033 246.867 147.412 246.352C146.791 245.837 146.018 245.58 145.094 245.58C144.147 245.58 143.359 245.837 142.73 246.352C142.109 246.867 141.643 247.561 141.332 248.432C141.029 249.295 140.878 250.261 140.878 251.33C140.878 252.39 141.029 253.352 141.332 254.216C141.643 255.08 142.109 255.769 142.73 256.284C143.359 256.792 144.147 257.045 145.094 257.045ZM168.051 252.659V242.545H172.165V260H168.176V256.898H167.994C167.6 257.875 166.953 258.674 166.051 259.295C165.157 259.917 164.055 260.227 162.744 260.227C161.6 260.227 160.589 259.973 159.71 259.466C158.839 258.951 158.157 258.205 157.665 257.227C157.172 256.242 156.926 255.053 156.926 253.659V242.545H161.04V253.023C161.04 254.129 161.343 255.008 161.949 255.659C162.555 256.311 163.35 256.636 164.335 256.636C164.941 256.636 165.528 256.489 166.097 256.193C166.665 255.898 167.131 255.458 167.494 254.875C167.866 254.284 168.051 253.545 168.051 252.659ZM180.509 236.727V260H176.395V236.727H180.509ZM191.216 260.307C189.845 260.307 188.617 259.955 187.534 259.25C186.451 258.545 185.595 257.523 184.966 256.182C184.337 254.841 184.023 253.212 184.023 251.295C184.023 249.356 184.341 247.72 184.977 246.386C185.621 245.045 186.489 244.034 187.58 243.352C188.67 242.663 189.886 242.318 191.227 242.318C192.25 242.318 193.091 242.492 193.75 242.841C194.409 243.182 194.932 243.595 195.318 244.08C195.705 244.557 196.004 245.008 196.216 245.432H196.386V236.727H200.511V260H196.466V257.25H196.216C196.004 257.674 195.697 258.125 195.295 258.602C194.894 259.072 194.364 259.473 193.705 259.807C193.045 260.14 192.216 260.307 191.216 260.307ZM192.364 256.932C193.235 256.932 193.977 256.697 194.591 256.227C195.205 255.75 195.67 255.087 195.989 254.239C196.307 253.39 196.466 252.402 196.466 251.273C196.466 250.144 196.307 249.163 195.989 248.33C195.678 247.496 195.216 246.848 194.602 246.386C193.996 245.924 193.25 245.693 192.364 245.693C191.447 245.693 190.682 245.932 190.068 246.409C189.455 246.886 188.992 247.545 188.682 248.386C188.371 249.227 188.216 250.189 188.216 251.273C188.216 252.364 188.371 253.337 188.682 254.193C189 255.042 189.466 255.712 190.08 256.205C190.701 256.689 191.462 256.932 192.364 256.932ZM216.946 249.773V260H212.832V242.545H216.764V245.511H216.969C217.37 244.534 218.01 243.758 218.889 243.182C219.776 242.606 220.87 242.318 222.173 242.318C223.378 242.318 224.427 242.576 225.321 243.091C226.223 243.606 226.92 244.352 227.412 245.33C227.912 246.307 228.158 247.492 228.151 248.886V260H224.037V249.523C224.037 248.356 223.734 247.443 223.128 246.784C222.529 246.125 221.7 245.795 220.639 245.795C219.92 245.795 219.279 245.955 218.719 246.273C218.166 246.583 217.73 247.034 217.412 247.625C217.101 248.216 216.946 248.932 216.946 249.773ZM239.946 260.341C238.241 260.341 236.764 259.966 235.514 259.216C234.264 258.466 233.295 257.417 232.605 256.068C231.923 254.72 231.582 253.144 231.582 251.341C231.582 249.538 231.923 247.958 232.605 246.602C233.295 245.246 234.264 244.193 235.514 243.443C236.764 242.693 238.241 242.318 239.946 242.318C241.651 242.318 243.128 242.693 244.378 243.443C245.628 244.193 246.594 245.246 247.276 246.602C247.965 247.958 248.31 249.538 248.31 251.341C248.31 253.144 247.965 254.72 247.276 256.068C246.594 257.417 245.628 258.466 244.378 259.216C243.128 259.966 241.651 260.341 239.946 260.341ZM239.969 257.045C240.893 257.045 241.666 256.792 242.287 256.284C242.908 255.769 243.37 255.08 243.673 254.216C243.984 253.352 244.139 252.39 244.139 251.33C244.139 250.261 243.984 249.295 243.673 248.432C243.37 247.561 242.908 246.867 242.287 246.352C241.666 245.837 240.893 245.58 239.969 245.58C239.022 245.58 238.234 245.837 237.605 246.352C236.984 246.867 236.518 247.561 236.207 248.432C235.904 249.295 235.753 250.261 235.753 251.33C235.753 252.39 235.904 253.352 236.207 254.216C236.518 255.08 236.984 255.769 237.605 256.284C238.234 256.792 239.022 257.045 239.969 257.045ZM260.517 242.545V245.727H250.483V242.545H260.517ZM252.96 238.364H257.074V254.75C257.074 255.303 257.157 255.727 257.324 256.023C257.498 256.311 257.725 256.508 258.006 256.614C258.286 256.72 258.597 256.773 258.938 256.773C259.195 256.773 259.43 256.754 259.642 256.716C259.862 256.678 260.028 256.644 260.142 256.614L260.835 259.83C260.616 259.905 260.301 259.989 259.892 260.08C259.491 260.17 258.998 260.223 258.415 260.239C257.384 260.269 256.456 260.114 255.631 259.773C254.805 259.424 254.15 258.886 253.665 258.159C253.188 257.432 252.953 256.523 252.96 255.432V238.364ZM276.009 249.773V260H271.895V236.727H275.918V245.511H276.122C276.531 244.527 277.164 243.75 278.02 243.182C278.884 242.606 279.982 242.318 281.315 242.318C282.527 242.318 283.584 242.572 284.486 243.08C285.387 243.587 286.084 244.33 286.577 245.307C287.077 246.284 287.327 247.477 287.327 248.886V260H283.213V249.523C283.213 248.348 282.91 247.436 282.304 246.784C281.705 246.125 280.865 245.795 279.781 245.795C279.054 245.795 278.402 245.955 277.827 246.273C277.259 246.583 276.812 247.034 276.486 247.625C276.168 248.216 276.009 248.932 276.009 249.773ZM296.543 260.352C295.437 260.352 294.44 260.155 293.554 259.761C292.675 259.36 291.978 258.769 291.463 257.989C290.955 257.208 290.702 256.246 290.702 255.102C290.702 254.117 290.884 253.303 291.247 252.659C291.611 252.015 292.107 251.5 292.736 251.114C293.365 250.727 294.073 250.436 294.861 250.239C295.656 250.034 296.478 249.886 297.327 249.795C298.349 249.689 299.179 249.595 299.815 249.511C300.452 249.42 300.914 249.284 301.202 249.102C301.497 248.913 301.645 248.621 301.645 248.227V248.159C301.645 247.303 301.391 246.64 300.884 246.17C300.376 245.701 299.645 245.466 298.69 245.466C297.683 245.466 296.884 245.686 296.293 246.125C295.709 246.564 295.315 247.083 295.111 247.682L291.27 247.136C291.573 246.076 292.073 245.189 292.77 244.477C293.467 243.758 294.319 243.22 295.327 242.864C296.334 242.5 297.448 242.318 298.668 242.318C299.509 242.318 300.346 242.417 301.179 242.614C302.012 242.811 302.774 243.136 303.463 243.591C304.152 244.038 304.705 244.648 305.122 245.42C305.546 246.193 305.759 247.159 305.759 248.318V260H301.804V257.602H301.668C301.418 258.087 301.065 258.542 300.611 258.966C300.164 259.383 299.599 259.72 298.918 259.977C298.243 260.227 297.452 260.352 296.543 260.352ZM297.611 257.33C298.437 257.33 299.152 257.167 299.759 256.841C300.365 256.508 300.83 256.068 301.156 255.523C301.49 254.977 301.656 254.383 301.656 253.739V251.682C301.527 251.788 301.308 251.886 300.997 251.977C300.694 252.068 300.353 252.148 299.974 252.216C299.596 252.284 299.221 252.345 298.849 252.398C298.478 252.451 298.156 252.496 297.884 252.534C297.27 252.617 296.721 252.754 296.236 252.943C295.751 253.133 295.368 253.398 295.088 253.739C294.808 254.072 294.668 254.504 294.668 255.034C294.668 255.792 294.944 256.364 295.497 256.75C296.05 257.136 296.755 257.33 297.611 257.33ZM324.861 242.545L318.645 260H314.099L307.884 242.545H312.27L316.281 255.511H316.463L320.486 242.545H324.861ZM334.841 260.341C333.091 260.341 331.58 259.977 330.307 259.25C329.042 258.515 328.068 257.477 327.386 256.136C326.705 254.788 326.364 253.201 326.364 251.375C326.364 249.58 326.705 248.004 327.386 246.648C328.076 245.284 329.038 244.223 330.273 243.466C331.508 242.701 332.958 242.318 334.625 242.318C335.701 242.318 336.716 242.492 337.67 242.841C338.633 243.182 339.481 243.712 340.216 244.432C340.958 245.152 341.542 246.068 341.966 247.182C342.39 248.288 342.602 249.606 342.602 251.136V252.398H328.295V249.625H338.659C338.652 248.837 338.481 248.136 338.148 247.523C337.814 246.902 337.348 246.413 336.75 246.057C336.159 245.701 335.47 245.523 334.682 245.523C333.841 245.523 333.102 245.727 332.466 246.136C331.83 246.538 331.333 247.068 330.977 247.727C330.629 248.379 330.451 249.095 330.443 249.875V252.295C330.443 253.311 330.629 254.182 331 254.909C331.371 255.629 331.89 256.182 332.557 256.568C333.223 256.947 334.004 257.136 334.898 257.136C335.496 257.136 336.038 257.053 336.523 256.886C337.008 256.712 337.428 256.458 337.784 256.125C338.14 255.792 338.409 255.379 338.591 254.886L342.432 255.318C342.189 256.333 341.727 257.22 341.045 257.977C340.371 258.727 339.508 259.311 338.455 259.727C337.402 260.136 336.197 260.341 334.841 260.341ZM362.736 242.545V245.727H352.702V242.545H362.736ZM355.179 238.364H359.293V254.75C359.293 255.303 359.376 255.727 359.543 256.023C359.717 256.311 359.944 256.508 360.224 256.614C360.505 256.72 360.815 256.773 361.156 256.773C361.414 256.773 361.649 256.754 361.861 256.716C362.08 256.678 362.247 256.644 362.361 256.614L363.054 259.83C362.834 259.905 362.52 259.989 362.111 260.08C361.709 260.17 361.217 260.223 360.634 260.239C359.603 260.269 358.675 260.114 357.849 259.773C357.024 259.424 356.368 258.886 355.884 258.159C355.406 257.432 355.171 256.523 355.179 255.432V238.364ZM373.602 260.341C371.898 260.341 370.42 259.966 369.17 259.216C367.92 258.466 366.951 257.417 366.261 256.068C365.58 254.72 365.239 253.144 365.239 251.341C365.239 249.538 365.58 247.958 366.261 246.602C366.951 245.246 367.92 244.193 369.17 243.443C370.42 242.693 371.898 242.318 373.602 242.318C375.307 242.318 376.784 242.693 378.034 243.443C379.284 244.193 380.25 245.246 380.932 246.602C381.621 247.958 381.966 249.538 381.966 251.341C381.966 253.144 381.621 254.72 380.932 256.068C380.25 257.417 379.284 258.466 378.034 259.216C376.784 259.966 375.307 260.341 373.602 260.341ZM373.625 257.045C374.549 257.045 375.322 256.792 375.943 256.284C376.564 255.769 377.027 255.08 377.33 254.216C377.64 253.352 377.795 252.39 377.795 251.33C377.795 250.261 377.64 249.295 377.33 248.432C377.027 247.561 376.564 246.867 375.943 246.352C375.322 245.837 374.549 245.58 373.625 245.58C372.678 245.58 371.89 245.837 371.261 246.352C370.64 246.867 370.174 247.561 369.864 248.432C369.561 249.295 369.409 250.261 369.409 251.33C369.409 252.39 369.561 253.352 369.864 254.216C370.174 255.08 370.64 255.769 371.261 256.284C371.89 256.792 372.678 257.045 373.625 257.045ZM393.395 266.545V242.545H397.44V245.432H397.679C397.891 245.008 398.19 244.557 398.577 244.08C398.963 243.595 399.486 243.182 400.145 242.841C400.804 242.492 401.645 242.318 402.668 242.318C404.016 242.318 405.232 242.663 406.315 243.352C407.406 244.034 408.27 245.045 408.906 246.386C409.55 247.72 409.872 249.356 409.872 251.295C409.872 253.212 409.558 254.841 408.929 256.182C408.3 257.523 407.444 258.545 406.361 259.25C405.277 259.955 404.05 260.307 402.679 260.307C401.679 260.307 400.849 260.14 400.19 259.807C399.531 259.473 399.001 259.072 398.599 258.602C398.205 258.125 397.899 257.674 397.679 257.25H397.509V266.545H393.395ZM397.429 251.273C397.429 252.402 397.588 253.39 397.906 254.239C398.232 255.087 398.698 255.75 399.304 256.227C399.918 256.697 400.66 256.932 401.531 256.932C402.44 256.932 403.202 256.689 403.815 256.205C404.429 255.712 404.891 255.042 405.202 254.193C405.52 253.337 405.679 252.364 405.679 251.273C405.679 250.189 405.524 249.227 405.213 248.386C404.902 247.545 404.44 246.886 403.827 246.409C403.213 245.932 402.448 245.693 401.531 245.693C400.652 245.693 399.906 245.924 399.293 246.386C398.679 246.848 398.213 247.496 397.895 248.33C397.584 249.163 397.429 250.144 397.429 251.273ZM418.418 260.352C417.312 260.352 416.315 260.155 415.429 259.761C414.55 259.36 413.853 258.769 413.338 257.989C412.83 257.208 412.577 256.246 412.577 255.102C412.577 254.117 412.759 253.303 413.122 252.659C413.486 252.015 413.982 251.5 414.611 251.114C415.24 250.727 415.948 250.436 416.736 250.239C417.531 250.034 418.353 249.886 419.202 249.795C420.224 249.689 421.054 249.595 421.69 249.511C422.327 249.42 422.789 249.284 423.077 249.102C423.372 248.913 423.52 248.621 423.52 248.227V248.159C423.52 247.303 423.266 246.64 422.759 246.17C422.251 245.701 421.52 245.466 420.565 245.466C419.558 245.466 418.759 245.686 418.168 246.125C417.584 246.564 417.19 247.083 416.986 247.682L413.145 247.136C413.448 246.076 413.948 245.189 414.645 244.477C415.342 243.758 416.194 243.22 417.202 242.864C418.209 242.5 419.323 242.318 420.543 242.318C421.384 242.318 422.221 242.417 423.054 242.614C423.887 242.811 424.649 243.136 425.338 243.591C426.027 244.038 426.58 244.648 426.997 245.42C427.421 246.193 427.634 247.159 427.634 248.318V260H423.679V257.602H423.543C423.293 258.087 422.94 258.542 422.486 258.966C422.039 259.383 421.474 259.72 420.793 259.977C420.118 260.227 419.327 260.352 418.418 260.352ZM419.486 257.33C420.312 257.33 421.027 257.167 421.634 256.841C422.24 256.508 422.705 256.068 423.031 255.523C423.365 254.977 423.531 254.383 423.531 253.739V251.682C423.402 251.788 423.183 251.886 422.872 251.977C422.569 252.068 422.228 252.148 421.849 252.216C421.471 252.284 421.096 252.345 420.724 252.398C420.353 252.451 420.031 252.496 419.759 252.534C419.145 252.617 418.596 252.754 418.111 252.943C417.626 253.133 417.243 253.398 416.963 253.739C416.683 254.072 416.543 254.504 416.543 255.034C416.543 255.792 416.819 256.364 417.372 256.75C417.925 257.136 418.63 257.33 419.486 257.33ZM433.702 266.545C433.141 266.545 432.622 266.5 432.145 266.409C431.675 266.326 431.3 266.227 431.02 266.114L431.974 262.909C432.573 263.083 433.107 263.167 433.577 263.159C434.046 263.152 434.459 263.004 434.815 262.716C435.179 262.436 435.486 261.966 435.736 261.307L436.088 260.364L429.759 242.545H434.122L438.145 255.727H438.327L442.361 242.545H446.736L439.747 262.114C439.421 263.038 438.99 263.83 438.452 264.489C437.914 265.155 437.255 265.663 436.474 266.011C435.702 266.367 434.777 266.545 433.702 266.545ZM466.236 242.545V245.727H456.202V242.545H466.236ZM458.679 238.364H462.793V254.75C462.793 255.303 462.876 255.727 463.043 256.023C463.217 256.311 463.444 256.508 463.724 256.614C464.005 256.72 464.315 256.773 464.656 256.773C464.914 256.773 465.149 256.754 465.361 256.716C465.58 256.678 465.747 256.644 465.861 256.614L466.554 259.83C466.334 259.905 466.02 259.989 465.611 260.08C465.209 260.17 464.717 260.223 464.134 260.239C463.103 260.269 462.175 260.114 461.349 259.773C460.524 259.424 459.868 258.886 459.384 258.159C458.906 257.432 458.671 256.523 458.679 255.432V238.364ZM477.102 260.341C475.398 260.341 473.92 259.966 472.67 259.216C471.42 258.466 470.451 257.417 469.761 256.068C469.08 254.72 468.739 253.144 468.739 251.341C468.739 249.538 469.08 247.958 469.761 246.602C470.451 245.246 471.42 244.193 472.67 243.443C473.92 242.693 475.398 242.318 477.102 242.318C478.807 242.318 480.284 242.693 481.534 243.443C482.784 244.193 483.75 245.246 484.432 246.602C485.121 247.958 485.466 249.538 485.466 251.341C485.466 253.144 485.121 254.72 484.432 256.068C483.75 257.417 482.784 258.466 481.534 259.216C480.284 259.966 478.807 260.341 477.102 260.341ZM477.125 257.045C478.049 257.045 478.822 256.792 479.443 256.284C480.064 255.769 480.527 255.08 480.83 254.216C481.14 253.352 481.295 252.39 481.295 251.33C481.295 250.261 481.14 249.295 480.83 248.432C480.527 247.561 480.064 246.867 479.443 246.352C478.822 245.837 478.049 245.58 477.125 245.58C476.178 245.58 475.39 245.837 474.761 246.352C474.14 246.867 473.674 247.561 473.364 248.432C473.061 249.295 472.909 250.261 472.909 251.33C472.909 252.39 473.061 253.352 473.364 254.216C473.674 255.08 474.14 255.769 474.761 256.284C475.39 256.792 476.178 257.045 477.125 257.045ZM504.509 260.341C502.766 260.341 501.27 259.958 500.02 259.193C498.777 258.428 497.819 257.371 497.145 256.023C496.478 254.667 496.145 253.106 496.145 251.341C496.145 249.568 496.486 248.004 497.168 246.648C497.849 245.284 498.812 244.223 500.054 243.466C501.304 242.701 502.781 242.318 504.486 242.318C505.902 242.318 507.156 242.58 508.247 243.102C509.346 243.617 510.221 244.348 510.872 245.295C511.524 246.235 511.895 247.333 511.986 248.591H508.054C507.895 247.75 507.516 247.049 506.918 246.489C506.327 245.92 505.535 245.636 504.543 245.636C503.702 245.636 502.963 245.864 502.327 246.318C501.69 246.765 501.194 247.409 500.838 248.25C500.49 249.091 500.315 250.098 500.315 251.273C500.315 252.462 500.49 253.485 500.838 254.341C501.187 255.189 501.675 255.845 502.304 256.307C502.94 256.761 503.687 256.989 504.543 256.989C505.149 256.989 505.69 256.875 506.168 256.648C506.652 256.413 507.058 256.076 507.384 255.636C507.709 255.197 507.933 254.663 508.054 254.034H511.986C511.887 255.269 511.524 256.364 510.895 257.318C510.266 258.265 509.41 259.008 508.327 259.545C507.243 260.076 505.971 260.341 504.509 260.341ZM519.477 236.727V260H515.364V236.727H519.477ZM528.73 260.352C527.624 260.352 526.628 260.155 525.741 259.761C524.863 259.36 524.166 258.769 523.651 257.989C523.143 257.208 522.889 256.246 522.889 255.102C522.889 254.117 523.071 253.303 523.435 252.659C523.798 252.015 524.295 251.5 524.923 251.114C525.552 250.727 526.26 250.436 527.048 250.239C527.844 250.034 528.666 249.886 529.514 249.795C530.537 249.689 531.366 249.595 532.003 249.511C532.639 249.42 533.101 249.284 533.389 249.102C533.685 248.913 533.832 248.621 533.832 248.227V248.159C533.832 247.303 533.579 246.64 533.071 246.17C532.563 245.701 531.832 245.466 530.878 245.466C529.87 245.466 529.071 245.686 528.48 246.125C527.897 246.564 527.503 247.083 527.298 247.682L523.457 247.136C523.76 246.076 524.26 245.189 524.957 244.477C525.654 243.758 526.507 243.22 527.514 242.864C528.522 242.5 529.635 242.318 530.855 242.318C531.696 242.318 532.533 242.417 533.366 242.614C534.2 242.811 534.961 243.136 535.651 243.591C536.34 244.038 536.893 244.648 537.31 245.42C537.734 246.193 537.946 247.159 537.946 248.318V260H533.991V257.602H533.855C533.605 258.087 533.253 258.542 532.798 258.966C532.351 259.383 531.787 259.72 531.105 259.977C530.431 260.227 529.639 260.352 528.73 260.352ZM529.798 257.33C530.624 257.33 531.34 257.167 531.946 256.841C532.552 256.508 533.018 256.068 533.344 255.523C533.677 254.977 533.844 254.383 533.844 253.739V251.682C533.715 251.788 533.495 251.886 533.185 251.977C532.882 252.068 532.541 252.148 532.162 252.216C531.783 252.284 531.408 252.345 531.037 252.398C530.666 252.451 530.344 252.496 530.071 252.534C529.457 252.617 528.908 252.754 528.423 252.943C527.938 253.133 527.556 253.398 527.276 253.739C526.995 254.072 526.855 254.504 526.855 255.034C526.855 255.792 527.132 256.364 527.685 256.75C528.238 257.136 528.942 257.33 529.798 257.33ZM542.082 260V242.545H546.196V260H542.082ZM544.151 240.068C543.499 240.068 542.938 239.852 542.469 239.42C541.999 238.981 541.764 238.455 541.764 237.841C541.764 237.22 541.999 236.693 542.469 236.261C542.938 235.822 543.499 235.602 544.151 235.602C544.81 235.602 545.37 235.822 545.832 236.261C546.302 236.693 546.537 237.22 546.537 237.841C546.537 238.455 546.302 238.981 545.832 239.42C545.37 239.852 544.81 240.068 544.151 240.068ZM550.426 260V242.545H554.358V245.511H554.562C554.926 244.511 555.528 243.731 556.369 243.17C557.21 242.602 558.214 242.318 559.381 242.318C560.562 242.318 561.559 242.606 562.369 243.182C563.188 243.75 563.763 244.527 564.097 245.511H564.278C564.665 244.542 565.316 243.769 566.233 243.193C567.157 242.61 568.252 242.318 569.517 242.318C571.123 242.318 572.434 242.826 573.449 243.841C574.464 244.856 574.972 246.337 574.972 248.284V260H570.847V248.92C570.847 247.837 570.559 247.045 569.983 246.545C569.407 246.038 568.703 245.784 567.869 245.784C566.877 245.784 566.1 246.095 565.54 246.716C564.987 247.33 564.71 248.129 564.71 249.114V260H560.676V248.75C560.676 247.848 560.403 247.129 559.858 246.591C559.32 246.053 558.616 245.784 557.744 245.784C557.153 245.784 556.616 245.936 556.131 246.239C555.646 246.534 555.259 246.955 554.972 247.5C554.684 248.038 554.54 248.667 554.54 249.386V260H550.426ZM592.105 260.352C590.999 260.352 590.003 260.155 589.116 259.761C588.238 259.36 587.541 258.769 587.026 257.989C586.518 257.208 586.264 256.246 586.264 255.102C586.264 254.117 586.446 253.303 586.81 252.659C587.173 252.015 587.67 251.5 588.298 251.114C588.927 250.727 589.635 250.436 590.423 250.239C591.219 250.034 592.041 249.886 592.889 249.795C593.912 249.689 594.741 249.595 595.378 249.511C596.014 249.42 596.476 249.284 596.764 249.102C597.06 248.913 597.207 248.621 597.207 248.227V248.159C597.207 247.303 596.954 246.64 596.446 246.17C595.938 245.701 595.207 245.466 594.253 245.466C593.245 245.466 592.446 245.686 591.855 246.125C591.272 246.564 590.878 247.083 590.673 247.682L586.832 247.136C587.135 246.076 587.635 245.189 588.332 244.477C589.029 243.758 589.882 243.22 590.889 242.864C591.897 242.5 593.01 242.318 594.23 242.318C595.071 242.318 595.908 242.417 596.741 242.614C597.575 242.811 598.336 243.136 599.026 243.591C599.715 244.038 600.268 244.648 600.685 245.42C601.109 246.193 601.321 247.159 601.321 248.318V260H597.366V257.602H597.23C596.98 258.087 596.628 258.542 596.173 258.966C595.726 259.383 595.162 259.72 594.48 259.977C593.806 260.227 593.014 260.352 592.105 260.352ZM593.173 257.33C593.999 257.33 594.715 257.167 595.321 256.841C595.927 256.508 596.393 256.068 596.719 255.523C597.052 254.977 597.219 254.383 597.219 253.739V251.682C597.09 251.788 596.87 251.886 596.56 251.977C596.257 252.068 595.916 252.148 595.537 252.216C595.158 252.284 594.783 252.345 594.412 252.398C594.041 252.451 593.719 252.496 593.446 252.534C592.832 252.617 592.283 252.754 591.798 252.943C591.313 253.133 590.931 253.398 590.651 253.739C590.37 254.072 590.23 254.504 590.23 255.034C590.23 255.792 590.507 256.364 591.06 256.75C591.613 257.136 592.317 257.33 593.173 257.33ZM613.395 266.545V242.545H617.44V245.432H617.679C617.891 245.008 618.19 244.557 618.577 244.08C618.963 243.595 619.486 243.182 620.145 242.841C620.804 242.492 621.645 242.318 622.668 242.318C624.016 242.318 625.232 242.663 626.315 243.352C627.406 244.034 628.27 245.045 628.906 246.386C629.55 247.72 629.872 249.356 629.872 251.295C629.872 253.212 629.558 254.841 628.929 256.182C628.3 257.523 627.444 258.545 626.361 259.25C625.277 259.955 624.05 260.307 622.679 260.307C621.679 260.307 620.849 260.14 620.19 259.807C619.531 259.473 619.001 259.072 618.599 258.602C618.205 258.125 617.899 257.674 617.679 257.25H617.509V266.545H613.395ZM617.429 251.273C617.429 252.402 617.588 253.39 617.906 254.239C618.232 255.087 618.698 255.75 619.304 256.227C619.918 256.697 620.66 256.932 621.531 256.932C622.44 256.932 623.202 256.689 623.815 256.205C624.429 255.712 624.891 255.042 625.202 254.193C625.52 253.337 625.679 252.364 625.679 251.273C625.679 250.189 625.524 249.227 625.213 248.386C624.902 247.545 624.44 246.886 623.827 246.409C623.213 245.932 622.448 245.693 621.531 245.693C620.652 245.693 619.906 245.924 619.293 246.386C618.679 246.848 618.213 247.496 617.895 248.33C617.584 249.163 617.429 250.144 617.429 251.273ZM633.395 260V242.545H637.384V245.455H637.565C637.884 244.447 638.429 243.67 639.202 243.125C639.982 242.572 640.872 242.295 641.872 242.295C642.099 242.295 642.353 242.307 642.634 242.33C642.921 242.345 643.16 242.371 643.349 242.409V246.193C643.175 246.133 642.899 246.08 642.52 246.034C642.149 245.981 641.789 245.955 641.44 245.955C640.69 245.955 640.016 246.117 639.418 246.443C638.827 246.761 638.361 247.205 638.02 247.773C637.679 248.341 637.509 248.996 637.509 249.739V260H633.395ZM646.082 260V242.545H650.196V260H646.082ZM648.151 240.068C647.499 240.068 646.938 239.852 646.469 239.42C645.999 238.981 645.764 238.455 645.764 237.841C645.764 237.22 645.999 236.693 646.469 236.261C646.938 235.822 647.499 235.602 648.151 235.602C648.81 235.602 649.37 235.822 649.832 236.261C650.302 236.693 650.537 237.22 650.537 237.841C650.537 238.455 650.302 238.981 649.832 239.42C649.37 239.852 648.81 240.068 648.151 240.068ZM654.199 260V257.386L663.199 246.102V245.955H654.494V242.545H668.233V245.352L659.665 256.443V256.591H668.528V260H654.199ZM679.622 260.341C677.872 260.341 676.361 259.977 675.088 259.25C673.823 258.515 672.849 257.477 672.168 256.136C671.486 254.788 671.145 253.201 671.145 251.375C671.145 249.58 671.486 248.004 672.168 246.648C672.857 245.284 673.819 244.223 675.054 243.466C676.289 242.701 677.74 242.318 679.406 242.318C680.482 242.318 681.497 242.492 682.452 242.841C683.414 243.182 684.262 243.712 684.997 244.432C685.74 245.152 686.323 246.068 686.747 247.182C687.171 248.288 687.384 249.606 687.384 251.136V252.398H673.077V249.625H683.44C683.433 248.837 683.262 248.136 682.929 247.523C682.596 246.902 682.13 246.413 681.531 246.057C680.94 245.701 680.251 245.523 679.463 245.523C678.622 245.523 677.884 245.727 677.247 246.136C676.611 246.538 676.115 247.068 675.759 247.727C675.41 248.379 675.232 249.095 675.224 249.875V252.295C675.224 253.311 675.41 254.182 675.781 254.909C676.152 255.629 676.671 256.182 677.338 256.568C678.005 256.947 678.785 257.136 679.679 257.136C680.277 257.136 680.819 257.053 681.304 256.886C681.789 256.712 682.209 256.458 682.565 256.125C682.921 255.792 683.19 255.379 683.372 254.886L687.213 255.318C686.971 256.333 686.509 257.22 685.827 257.977C685.152 258.727 684.289 259.311 683.236 259.727C682.183 260.136 680.978 260.341 679.622 260.341ZM693.398 260.25C692.708 260.25 692.117 260.008 691.625 259.523C691.133 259.038 690.89 258.447 690.898 257.75C690.89 257.068 691.133 256.485 691.625 256C692.117 255.515 692.708 255.273 693.398 255.273C694.064 255.273 694.644 255.515 695.136 256C695.636 256.485 695.89 257.068 695.898 257.75C695.89 258.212 695.769 258.633 695.534 259.011C695.307 259.39 695.004 259.693 694.625 259.92C694.254 260.14 693.845 260.25 693.398 260.25Z" fill="black"/>
</svg>
